<svg id="bird" xmlns="http://www.w3.org/2000/svg" xmlns:xlink="http://www.w3.org/1999/xlink" viewBox="0 0 34 24" shape-rendering="geometricPrecision" text-rendering="geometricPrecision">
<style><![CDATA[
#bird-u-wings_tr {animation: bird-u-wings_tr__tr 450ms linear infinite normal forwards}@keyframes bird-u-wings_tr__tr { 0% {transform: translate(12.166306px,12.694031px) rotate(0deg)} 24.444444% {transform: translate(12.166306px,12.694031px) rotate(-19.963642deg)} 51.111111% {transform: translate(12.166306px,12.694031px) rotate(-46.418327deg)} 75.555556% {transform: translate(12.166306px,12.694031px) rotate(-16.533034deg)} 100% {transform: translate(12.166306px,12.694031px) rotate(0deg)}}
]]></style>
<path id="bird-u-color" d="M30.8382,8.20693c-.106749.301513-.2193.61936-.2193.61936l.5852.29884C32.4047,9.7383,33.25,11.0441,33.25,12.5712v.0012c0,1.4426-.757,2.6867-1.8529,3.3365l-.4223.2504.0605.4872c.0207.1663.0319.3296.0319.4939c0,2.1448-1.6489,3.8216-3.6132,3.8216-.4474,0-.8685-.0806-1.2529-.2316l-.6575-.2584-.2972.6408c-.5946,1.2822-1.835,2.1372-3.2472,2.1372-1.4108,0-2.6515-.8548-3.2479-2.1377l-.2983-.6418-.658.2606c-.3835.1519-.8044.2333-1.249.2333-1.9647,0-3.6132-1.6767-3.6132-3.8216c0-.1644.0112-.3291.0313-.5002l.0568-.484-.4192-.2485c-1.0971-.6505-1.8517-1.8942-1.8517-3.3389c0-1.5294.8449-2.83296,2.0449-3.44615l.5845-.29867-.2186-.61891c-.1476-.4179-.228-.87063-.228-1.35027c0-2.14523,1.6485-3.8216,3.6132-3.8216.4459,0,.8672.08062,1.25.23264l.6578.26123.2988-.64156C19.3499,1.60577,20.5916,0.75,22.0008,0.75c1.4101,0,2.6518.85405,3.2452,2.13818l.2981.64537.6604-.26327c.3827-.15255.8024-.23228,1.2495-.23228c1.9627,0,3.6132,1.67481,3.6132,3.8192c0,.47993-.122251,1.048217-.229,1.34973Z" stroke="#000" stroke-width="1.5"/><path id="bird-u-check" d="M26.2375,8.53399L21.2847,15.9624c-.1656.248-.4368.3816-.7144.3816-.1632,0-.3292-.0456-.4756-.144l-.1312-.1072-2.76-2.76c-.3348-.3348-.3348-.878,0-1.2116s.8776-.336,1.2116,0l2.0228,2.0196l4.3712-6.56001c.2628-.3944.7952-.4984,1.188-.2368.3956.2632.5032.7956.2404,1.1888v.0012Z"/><g id="bird-u-wings_tr" transform="translate(12.166306,12.694031) rotate(0)"><path id="bird-u-wings" d="M14.6833,9.3105c.9309,1.4329,1.1236,3.2235.5189,4.8217-.955,2.5241-3.6363,3.9461-6.2616,3.3209l-.07085-.0169h-.00001c-.40649-.0968-.80049-.2401-1.17424-.427L4.38591,15.3544c-1.65689-.8284-2.75762-2.4655-2.8997-4.3125l-.06914-.8988c-.08758-1.13849.38144-2.24891,1.25862-2.9799.6909-.57575,1.57565-.86581,2.47333-.81086l5.10718.31264c1.7742.1086,3.3919,1.0519,4.3602,2.54252l.0669.103" transform="translate(-12.162971,-12.689781)" fill="#fff" stroke="#000" stroke-width="1.5"/></g></svg>
