<svg fill="none" height="11" viewBox="0 0 8 11" width="8" xmlns="http://www.w3.org/2000/svg"><path d="m8 8.43966v-1.27069c0-.62587-.22326-1.17587-.65116-1.66897.4279-.47414.65116-1.02414.65116-1.66897v-1.27068c0-.72069-.26047-1.32759-.74419-1.820694-.50232-.493104-1.13488-.739656-1.89767-.739656h-2.71628c-.78139 0-1.41395.246552-1.897674.739656-.502326.493104-.744186 1.100004-.744186 1.820694v.92931h1.86046v-1.02414c0-.18966.05582-.34138.18605-.49311.13023-.13275.27907-.20862.46512-.20862h2.97674c.16744 0 .31628.07587.44651.20862.13024.15173.20465.30345.20465.49311v1.47931c0 .18965-.05581.34138-.14883.45517-.11163.13276-.20465.18965-.31628.18965h-2.93954v1.8207h2.93954c.11163 0 .20465.07586.31628.18965.09302.13276.14883.28448.14883.45517v1.47931c0 .18966-.07441.36035-.20465.49311-.13023.15172-.27907.20862-.44651.20862h-2.97674c-.18605 0-.33489-.0569-.46512-.20862-.13023-.13276-.18605-.30345-.18605-.49311v-.87241h-1.86046v.77759c0 .73965.24186 1.34655.744186 1.83964.483724.4931 1.116284.7207 1.897674.7207h2.71628c.76279 0 1.39535-.2276 1.89767-.7207.48372-.49309.74419-1.09999.74419-1.83964z" fill="#fff"/></svg>