<svg fill="none" height="11" viewBox="0 0 8 11" width="8" xmlns="http://www.w3.org/2000/svg"><path d="m8 8.43966v-1.27069c0-.6069-.21769-1.17587-.61678-1.66897.39909-.4931.61678-1.0431.61678-1.66897v-1.27068c0-.72069-.25397-1.32759-.72562-1.820694-.4898-.493104-1.10658-.739656-1.85034-.739656h-2.84808c-.7619 0-1.37868.246552-1.850336.739656-.489796.493104-.725624 1.100004-.725624 1.820694v1.27068c0 .64483.199547 1.19483.634921 1.66897-.435374.4931-.634921 1.0431-.634921 1.66897v1.27069c0 .73965.235828 1.34655.725624 1.83964.471656.4931 1.088436.7207 1.850336.7207h2.84808c.74376 0 1.36054-.2276 1.85034-.7207.47165-.49309.72562-1.09999.72562-1.83964zm-1.81406-4.49483c0 .18965-.05442.34138-.14512.45517-.10885.13276-.19955.18965-.30839.18965h-3.46486c-.10884 0-.21768-.05689-.30839-.18965-.10884-.11379-.14512-.26552-.14512-.45517v-1.47931c0-.18966.05442-.34138.18141-.49311.12698-.13275.2721-.20862.45351-.20862h3.10204c.16327 0 .30839.07587.43538.20862.12698.15173.19954.30345.19954.49311zm0 4.58965c0 .18966-.07256.36035-.19954.49311-.12699.15172-.27211.20862-.43538.20862h-3.10204c-.18141 0-.32653-.0569-.45351-.20862-.12699-.13276-.18141-.30345-.18141-.49311v-1.47931c0-.17069.03628-.32241.14512-.45517.09071-.11379.19955-.18965.30839-.18965h3.46486c.10884 0 .19954.07586.30839.18965.0907.13276.14512.28448.14512.45517z" fill="#fff"/></svg>