<svg fill="none" height="10" viewBox="0 0 8 10" width="8" xmlns="http://www.w3.org/2000/svg"><path d="m8 7.67241v-1.96551c0-.68966-.27586-1.27587-.8092-1.75862-.55172-.48276-1.21379-.7069-2.00459-.7069l-3.08966.06897.07356-1.7069h5.29656v-1.60345h-7.062072l-.147127 4.91379 5.186209-.06896c.18391 0 .34942.0862.49655.22414.14713.15517.22069.36206.22069.60344v2.08621c0 .17241-.07356.32759-.2023.44828-.12874.13793-.27586.18965-.44138.18965h-3.03448c-.18391 0-.33104-.05172-.45977-.18965-.12874-.12069-.18391-.27587-.18391-.44828v-.7931h-1.83908v.70689c0 .67242.23908 1.22414.735632 1.67242.478158.44827 1.103448.65517 1.875858.65517h2.77702c.75402 0 1.37931-.2069 1.87586-.65517.47816-.44828.73563-1 .73563-1.67242z" fill="#fff"/></svg>