<svg fill="none" height="10" viewBox="0 0 8 10" width="8" xmlns="http://www.w3.org/2000/svg"><path d="m8 10v-1.60345h-5.95261c.03792-.25862.20853-.53448.51185-.81034.30332-.27587.68247-.53449 1.11849-.77586.41706-.24138.89099-.5 1.38388-.79311.49289-.27586.96683-.56896 1.38389-.84483.41706-.27586.77725-.62069 1.06161-1.01724.2654-.37931.41706-.7931.41706-1.22414v-.68965c0-.65517-.2654-1.2069-.79621-1.62069-.5308-.413793-1.17535-.62069-1.93365-.62069h-2.54028c-.77725 0-1.4218.241379-1.914694.706897-.492891.482763-.739336 1.051723-.739336 1.724133v.60345h1.93365v-.75862c0-.17241.05687-.31034.18957-.44827.1327-.12069.28436-.18966.47394-.18966h2.72985c.17062 0 .32228.06897.45498.18966.1327.13793.20853.27586.20853.44827v.62069c0 .27586-.20853.56897-.62559.87931-.41706.31035-.90995.63793-1.49763.94828-.58768.31034-1.17536.65517-1.76303 1.01724-.58768.36207-1.08057.7931-1.497635 1.31034-.417062.51725-.606635 1.06897-.606635 1.65518v1.2931z" fill="#fff"/></svg>