<svg fill="none" height="32" viewBox="0 0 25 32" width="25" xmlns="http://www.w3.org/2000/svg"><path d="m17.42 7.41401h.75v-.75-4.464-.75h-.75-3.792c-3.3593 0-6.28495 1.17746-8.63649 3.47788l-.00003-.00003-.00583.00582c-2.35785 2.35785-3.53167 5.28882-3.53167 8.83432v4.656 5.136c0 2.1016.6922 3.8441 2.15505 5.2013 1.458 1.4013 3.28616 2.0287 5.41095 2.0287h6.96002c2.1273 0 3.9573-.6289 5.4162-2.0337l.0051-.005.005-.005c1.3858-1.3857 2.1397-3.1113 2.1397-5.1863v-3.216c0-2.0768-.7557-3.8075-2.1978-5.1962-1.4476-1.394-3.2713-2.0818-5.3682-2.0818h-8.22046c.06203-1.4898.64335-2.7543 1.78595-3.89883 1.21191-1.16655 2.61071-1.75316 4.22651-1.75316zm-.4823 17.10369-.0177.0176-.0165.0188c-.1839.2102-.3567.2719-.5875.2719h-7.63202c-.29165 0-.45939-.0705-.63557-.2719l-.01644-.0188-.01766-.0176c-.16826-.1683-.26033-.3947-.26033-.7177v-4.722h8.56202c.1864 0 .3895.0762.6217.3083.2223.2224.3083.4238.3083.6697v3.744c0 .2681-.1035.5129-.3083.7177z" fill="#fff" stroke="#000" stroke-width="1.5"/></svg>