<svg fill="none" height="11" viewBox="0 0 8 11" width="8" xmlns="http://www.w3.org/2000/svg"><path d="m8 6.42931v-1.83966-2.0293c0-.73966-.25986-1.34656-.74246-1.839661-.50116-.474137-1.13225-.720689-1.89327-.720689h-2.72854c-.77958 0-1.41067.246552-1.893271.739656-.50116.493104-.742459 1.100004-.742459 1.820694v1.27068c0 .75862.241299 1.36552.742459 1.85863.501161.4931 1.132251.72069 1.893271.72069h3.50812v.18965c0 .72069-.25986 1.34655-.77958 1.85862-.51972.53103-1.13225.77759-1.83759.77759h-1.41067v1.76379h1.46636c1.22505 0 2.2645-.4172 3.11833-1.28965.85382-.85345 1.2993-1.95345 1.2993-3.28104zm-1.85615-1.80172h-3.63805c-.18561 0-.33411-.0569-.46404-.20862-.12993-.13276-.18561-.28449-.18561-.47414v-1.47931c0-.18966.05568-.34138.18561-.49311.12993-.13275.27843-.20862.46404-.20862h2.9884c.16705 0 .31555.07587.44548.20862.12993.15173.20417.30345.20417.49311z" fill="#fff"/></svg>