<svg fill="none" height="32" viewBox="0 0 25 32" width="25" xmlns="http://www.w3.org/2000/svg"><path d="m22.628 30.43h.75v-.75-4.464-.75h-.75-14.01786c.17461-.3028.42659-.63.7722-.9756.71476-.7148 1.62346-1.3995 2.69166-2.0497l.0064-.0039.0063-.004c.3919-.2494.8145-.512 1.2565-.7867.714-.4436 1.4786-.9188 2.2466-1.4207 1.2633-.7778 2.4763-1.6028 3.5433-2.3788 1.1303-.822 2.1055-1.8489 2.8751-3.0289l.0001.0001.0045-.0071c.7355-1.1558 1.1732-2.4455 1.1732-3.8107v-1.91997c0-2.02859-.7571-3.77788-2.2779-5.08145-1.4918-1.27872-3.3014-1.90855-5.3841-1.90855h-6.43199c-2.15495 0-3.98757.74322-5.38824 2.19777l-.00009-.00009-.00927.00998c-1.37789 1.48389-2.0724 3.25063-2.0724 5.31034v1.67997.75h.75 4.896.75v-.75-2.11197c0-.28481.07026-.49147.27797-.73507.21544-.20947.41267-.29093.65203-.29093h6.91199c.1818 0 .3794.0724.6044.29131.2456.28578.3256.49711.3256.73469v1.728c0 .41787-.2988 1.04107-1.3089 1.86757-1.0316.844-2.2468 1.7317-3.6937 2.5718-1.5081.8757-3.01157 1.846-4.50803 2.8597-1.55846 1.0557-2.86894 2.3156-3.97616 3.8254-1.14991 1.5681-1.6812 3.2593-1.6812 5.0515v3.6.75h.75z" fill="#fff" stroke="#000" stroke-width="1.5"/></svg>