<svg fill="none" height="32" viewBox="0 0 25 32" width="25" xmlns="http://www.w3.org/2000/svg"><path d="m22.9144 1.93391-.092-.64393h-.6504-19.72803-.75v.75 4.464.75h.75 13.84083c-.1382.2507-.3425.54041-.6293.86812-.6392.73058-1.4726 1.51964-2.4265 2.3784-1.0157.8708-2.0363 1.7941-3.0114 2.7692-1.01207 1.0121-1.92259 2.226-2.63145 3.593-.72349 1.3954-1.09218 2.8571-1.09218 4.3293v8.688.75h.75 4.99203.75v-.75-8.832c0-.7727.2673-1.6297.9605-2.5829l.0001.0001.0061-.0087c.5229-.7407 1.7135-1.9875 3.7305-3.8124l.0036-.0033c1.1496-1.0537 2.036-1.8898 2.6363-2.5401.6245-.6766 1.2821-1.592 1.9292-2.78566.6704-1.18795 1.0537-2.41622 1.0537-3.67506 0-.78368-.1535-2.03965-.3916-3.70607z" fill="#fff" stroke="#000" stroke-width="1.5"/></svg>