<svg fill="none" height="11" viewBox="0 0 8 11" width="8" xmlns="http://www.w3.org/2000/svg"><path d="m8 8.43966v-1.27069c0-.73966-.26107-1.34656-.76457-1.83966s-1.13753-.73966-1.88345-.73966h-3.48718v-.18965c0-.72069.26107-1.32759.78322-1.85862.52214-.51207 1.13753-.77759 1.84615-.77759h1.41725v-1.76379h-1.47319c-1.23077 0-2.29371.436207-3.15152 1.28966-.857806.87241-1.28671 1.95344-1.28671 3.28103v1.83966 2.02931c0 .75862.242424 1.36551.745921 1.83964.503499.4931 1.137529.7207 1.902099.7207h2.70396c.76457 0 1.3986-.2276 1.9021-.7207.48485-.49309.74592-1.09999.74592-1.83964zm-1.8648.09482c0 .18966-.07459.36035-.20513.49311-.13054.15172-.27972.20862-.44755.20862h-2.96504c-.18648 0-.33566-.0569-.4662-.20862-.13053-.13276-.18648-.30345-.18648-.49311v-2.16207h3.61772c.16783 0 .31701.07587.44755.20862.13054.13276.20513.28449.20513.47414z" fill="#fff"/></svg>