<svg fill="none" height="32" viewBox="0 0 25 32" width="25" xmlns="http://www.w3.org/2000/svg"><path d="m21.5743 3.30267-.005-.005-.005-.00491c-1.4225-1.36978-3.2132-2.04276-5.3143-2.04276h-7.33198c-2.13958 0-3.93699.66806-5.31932 2.04766-1.41976 1.36966-2.10468 3.07039-2.10468 5.04734v14.57c0 2.0208.68282 3.7226 2.10465 5.0943 1.39137 1.3885 3.19481 2.0007 5.31935 2.0007h7.33198c2.0864 0 3.8824-.6169 5.3143-1.9958l.005-.0049.0051-.005c1.3597-1.3597 2.0996-3.0534 2.0996-5.0893v-14.57c0-1.99191-.742-3.68471-2.0997-5.04233zm-4.3976 20.53903-.0177.0176-.0164.0188c-.1769.2022-.3417.2609-.5636.2609h-7.98998c-.28165 0-.44139-.0675-.61057-.2609l-.01644-.0188-.01766-.0176c-.16126-.1613-.25033-.3787-.25033-.6917v-15.04c0-.27482.06729-.47353.26797-.70906.20836-.20241.39761-.27994.62703-.27994h7.98998c.1729 0 .3625.0685.5805.28034.2384.27767.3145.48102.3145.70866v15.04c0 .2581-.0995.4939-.2973.6917zm-1.7594-10.81-.0293-.0294-.0325-.026c-.3166-.2532-.7593-.4933-1.3145-.4933h-2.773c-.5603 0-1.0215.2088-1.34724.5202-.43574.3676-.57774.8818-.57774 1.3108v2.679c0 .4565.13147.9818.57861 1.3585.37477.3555.86767.4725 1.34637.4725h2.773c.4824 0 .9339-.1418 1.3145-.4463l.0325-.026.0293-.0294c.3151-.315.5487-.7829.5487-1.3293v-2.679c0-.5161-.247-.9807-.5487-1.2823z" fill="#fff" stroke="#000" stroke-width="1.5"/></svg>