<svg fill="none" height="32" viewBox="0 0 25 32" width="25" xmlns="http://www.w3.org/2000/svg"><path d="m7.72999 7.91999c0-.2848.07027-.49147.27798-.73506.21544-.20948.41267-.29094.65202-.29094h7.68001c.1818 0 .3794.07241.6044.29132.2455.28578.3256.49711.3256.73468v3.74401c0 .3195-.0917.5281-.2072.6683-.1136.1319-.1828.1842-.2164.204-.0075.0045-.0125.0068-.0151.008l-.0028.0011-.0006.0002s-.0001 0-.0004 0c-.0004.0001-.0014.0002-.0033.0003-.0011.0001-.0025.0001-.0042.0001h-7.58401-.75v.75 4.608.75h.75 7.56401c.0056.0028.0139.0075.0253.0147.0521.0332.1236.0921.2334.1992.1405.2124.2113.4316.2113.6681v3.744c0 .2681-.1035.5128-.3083.7177l-.0177.0176-.0164.0188c-.184.2102-.3568.2719-.5876.2719h-7.68001c-.29165 0-.45939-.0705-.63556-.2719l-.01645-.0188-.01766-.0176c-.16825-.1683-.26033-.3947-.26033-.7177v-2.208-.75h-.75-4.8-.75v.75 1.968c0 2.0598.69583 3.7936 2.14465 5.1913 1.41738 1.4145 3.25482 2.0387 5.42135 2.0387h7.00801c2.1274 0 3.9574-.6289 5.4162-2.0338l.0051-.0049.005-.005c1.3858-1.3858 2.1397-3.1114 2.1397-5.1863v-3.216c0-1.5718-.5082-2.9709-1.4538-4.2163.9502-1.2192 1.4538-2.6253 1.4538-4.2317v-3.21601c0-2.02991-.7561-3.75471-2.1397-5.13833l-.005-.005-.0051-.00491c-1.4494-1.39578-3.2741-2.081757-5.4162-2.081757h-7.00801c-2.18157 0-4.01298.681057-5.42131 2.086657-1.44677 1.39566-2.14469 3.12839-2.14469 5.14334v2.35201.75h.75 4.8.75v-.75z" fill="#fff" stroke="#000" stroke-width="1.5"/></svg>