<svg fill="none" height="11" viewBox="0 0 8 11" width="8" xmlns="http://www.w3.org/2000/svg"><path d="m8 8.43966v-5.87931c0-.72069-.25455-1.32759-.72727-1.820694-.49091-.493104-1.10909-.739656-1.85455-.739656h-2.83636c-.76364 0-1.38182.246552-1.854547.739656-.49091.493104-.727273 1.100004-.727273 1.820694v5.87931c0 .73965.236363 1.34655.727273 1.83964.472727.4931 1.090907.7207 1.854547.7207h2.83636c.74546 0 1.36364-.2276 1.85455-.7207.47272-.49309.72727-1.09999.72727-1.83964zm-1.81818.09482c0 .18966-.07273.36035-.2.49311-.12727.15172-.27273.20862-.43637.20862h-3.0909c-.18182 0-.32728-.0569-.45455-.20862-.12727-.13276-.18182-.30345-.18182-.49311v-6.06896c0-.18966.05455-.34138.18182-.49311.12727-.13275.27273-.20862.45455-.20862h3.0909c.16364 0 .3091.07587.43637.20862.12727.15173.2.30345.2.49311zm-1.16364-2.48448v-1.08103c0-.1138-.05454-.22759-.12727-.30345-.09091-.07587-.2-.13276-.32727-.13276h-1.07273c-.14546 0-.25455.05689-.32727.13276-.09091.07586-.12728.18965-.12728.30345v1.08103c0 .13276.03637.24655.12728.32241.07272.07587.18181.1138.32727.1138h1.07273c.12727 0 .23636-.03793.32727-.1138.07273-.07586.12727-.18965.12727-.32241z" fill="#fff"/></svg>