<svg fill="none" height="32" viewBox="0 0 25 32" width="25" xmlns="http://www.w3.org/2000/svg"><path d="m21.6943 3.22168-.005-.00501-.0051-.0049c-1.4494-1.39579-3.2741-2.08177-5.4162-2.08177h-7.53598c-2.18158 0-4.01299.68106-5.42132 2.08666-1.44677 1.39566-2.14468 3.12839-2.14468 5.14335v3.21599c0 1.5917.45813 3.002 1.44016 4.2319-.97763 1.2562-1.44016 2.6585-1.44016 4.2161v3.216c0 2.0598.69582 3.7936 2.14465 5.1913 1.41737 1.4145 3.25481 2.0387 5.42135 2.0387h7.53598c2.1274 0 3.9574-.6289 5.4162-2.0338l.0051-.0049.005-.005c1.3858-1.3857 2.1397-3.1113 2.1397-5.1863v-3.216c0-1.5333-.5105-2.9673-1.4274-4.2231.9154-1.2457 1.4274-2.6469 1.4274-4.2249v-3.21599c0-2.02992-.756-3.75471-2.1397-5.13833zm-13.98398 9.35842-.03608-.0505-.0439-.0439c-.08614-.0862-.16432-.233-.16432-.6217v-3.74399c0-.28481.07026-.49148.27797-.73507.21544-.20948.41267-.29093.65203-.29093h8.20798c.1818 0 .3794.0724.6044.29131.2456.28578.3256.49711.3256.73469v3.74399c0 .3195-.0917.5281-.2071.6682-.1137.132-.1829.1843-.2164.2041-.0076.0045-.0126.0068-.0152.008l-.0028.0011-.0006.0002s-.0001 0-.0004.0001c-.0006 0-.0029.0003-.0075.0003h-9.16798c-.01458 0-.03146-.0025-.05696-.0169-.02797-.0158-.08173-.0552-.14874-.149zm9.51538 11.6176-.0177.0176-.0164.0188c-.1839.2102-.3567.2719-.5876.2719h-8.20798c-.29165 0-.4594-.0705-.63557-.2719l-.01645-.0188-.01765-.0176c-.16826-.1683-.26033-.3947-.26033-.7177v-3.744c0-.3116.06514-.5026.20344-.6639h.00005l.00667-.008c.08057-.0966.15215-.156.2038-.1874.02415-.0147.03919-.0206.04564-.0227h9.13838c.0056.0028.0139.0075.0254.0148.052.0331.1235.092.2333.1992.1405.2123.2113.4315.2113.668v3.744c0 .2681-.1035.5129-.3083.7177z" fill="#fff" stroke="#000" stroke-width="1.5"/></svg>