<svg fill="none" height="32" viewBox="0 0 25 32" width="25" xmlns="http://www.w3.org/2000/svg"><path d="m21.4543 3.01364-.0102-.01019-.0105-.0098c-1.446-1.3389-3.2647-2.023679-5.4056-2.023679h-7.05599c-2.18158 0-4.01299.681059-5.42132 2.086659-1.44677 1.39566-2.14468 3.12839-2.14468 5.14334v3.21603c0 2.1072.69541 3.8437 2.14976 5.2442 1.45887 1.4048 3.28888 2.0338 5.41624 2.0338h8.31649c-.0623 1.5031-.6492 2.8026-1.7811 3.8941l-.0001-.0001-.0096.0096c-1.2 1.2001-2.5918 1.7484-4.2217 1.7484h-3.64799-.75v.75 4.464.75h.75 3.79199c3.3539 0 6.2353-1.1261 8.5915-3.4808 2.3592-2.3095 3.5825-5.2899 3.5825-8.8372v-4.656-5.13603c0-2.07494-.7539-3.80055-2.1397-5.18633zm-4.1603 4.94633v4.72203h-8.65799c-.29166 0-.4594-.0706-.63557-.2719l-.01645-.0188-.01765-.0177c-.18229-.1822-.26033-.3693-.26033-.6696v-3.74403c0-.2848.07026-.49147.27797-.73507.21544-.20947.41267-.29093.65203-.29093h7.72799c.1818 0 .3794.07241.6044.29132.2456.28578.3256.49711.3256.73468z" fill="#fff" stroke="#000" stroke-width="1.5"/></svg>