<svg fill="none" height="10" viewBox="0 0 8 10" width="8" xmlns="http://www.w3.org/2000/svg"><path d="m8 1.2931c0-.25862-.05728-.689651-.15275-1.2931h-7.84725v1.60345h5.89976c0 .22414-.15274.48276-.42005.75862-.2673.27586-.61097.56896-.99284.87931-.40095.31034-.80191.63793-1.18377.98276s-.72553.75862-.99284 1.22414c-.2673.46551-.40095.94827-.40095 1.43103v3.12069h1.98568v-3.17241c0-.34483.13365-.7069.43914-1.08621.22912-.2931.72554-.75862 1.52744-1.41379.45824-.37931.80191-.67242 1.03103-.89656.22912-.22413.47733-.53448.72554-.94827.24821-.39655.38186-.7931.38186-1.18966z" fill="#fff"/></svg>