<svg fill="none" height="32" viewBox="0 0 25 32" width="25" xmlns="http://www.w3.org/2000/svg"><path d="m21.3489 12.8124h.0001l-.0093-.0087c-1.5934-1.4872-3.5106-2.1697-5.7437-2.1697h-.0089l-.009.0002-7.26443.173.13064-3.23321h13.10369.75v-.75-4.464-.75h-.75-18.432-.72924l-.02047.72895-.384 13.67996-.02195.7821.78229-.0111 13.52967-.1919c.2062.0014.452.1004.745.3881.23.2671.3727.6485.3727 1.1659v5.808c0 .2681-.1035.5128-.3083.7177l-.0177.0176-.0164.0188c-.184.2102-.3567.2719-.5876.2719h-7.92c-.29165 0-.4594-.0706-.63557-.2719l-.01644-.0188-.01766-.0176c-.16826-.1683-.26033-.3947-.26033-.7177v-2.208-.75h-.75-4.8-.75v.75 1.968c0 2.0598.69582 3.7936 2.14465 5.1913 1.41737 1.4145 3.25481 2.0387 5.42135 2.0387h7.248c2.1274 0 3.9574-.6289 5.4162-2.0338l.0051-.0049.005-.005c1.3858-1.3858 2.1397-3.1114 2.1397-5.1863v-5.472c0-2.1319-.8089-3.9562-2.3411-5.4356z" fill="#fff" stroke="#000" stroke-width="1.5"/></svg>