<svg fill="none" height="44" viewBox="0 0 44 44" width="44" xmlns="http://www.w3.org/2000/svg"><circle cx="22.5" cy="22.5" fill="#000" r="13.5"/><path d="m44 23.0472c0-3.3103-1.8341-6.1805-4.5005-7.5423.3227-.9116.4987-1.8964.4987-2.9334 0-4.63097-3.5831-8.37683-7.9992-8.37683-.9849 0-1.9279.176-2.7999.5236-1.2943-2.80134-4.034-4.71827-7.1976-4.71827s-5.9004 1.92133-7.2014 4.71387c-.8697-.3454-1.815-.5236-2.7991-.5236-4.42127 0-7.9992 3.75026-7.9992 8.38123 0 1.0348.1738 2.0196.49647 2.9334-2.66494 1.3618-4.49827 4.2276-4.49827 7.5423 0 3.1328 1.63827 5.863 4.06853 7.304-.0418.3564-.06673.7128-.06673 1.0773 0 4.6302 3.57793 8.3812 7.9992 8.3812.9841 0 1.9279-.1804 2.7962-.5243 1.2995 2.7955 4.0355 4.7146 7.2013 4.7146 3.168 0 5.9041-1.9191 7.2006-4.7146.8698.3417 1.8128.5199 2.7999.5199 4.4205 0 7.9992-3.751 7.9992-8.3812 0-.3645-.0249-.7209-.0689-1.0751 2.4266-1.4388 4.0707-4.169 4.0707-7.2996zm-13.8615-6.985-9.0801 13.6187c-.3036.4547-.8008.6996-1.3097.6996-.2992 0-.6036-.0836-.872-.264l-.2405-.1965-5.06-5.06c-.6138-.6138-.6138-1.6097 0-2.2213s1.6089-.616 2.2213 0l3.7084 3.7026 8.0139-12.0266c.4818-.7231 1.4579-.9138 2.178-.4342.7253.4826.9225 1.4586.4407 2.1795z" fill="#f2b341"/></svg>