<svg fill="none" height="70" viewBox="0 0 115 70" width="115" xmlns="http://www.w3.org/2000/svg"><g fill="#fff"><rect height="60" rx="12" width="79" x="18" y="5"/><path d="m60 36.428c0-4.514-2.501-8.428-6.137-10.285.44-1.243.68-2.586.68-4 0-6.315-4.886-11.423-10.908-11.423-1.343 0-2.629.24-3.818.714-1.765-3.82-5.501-6.434-9.815-6.434s-8.046 2.62-9.82 6.428c-1.186-.471-2.475-.714-3.817-.714-6.029 0-10.908 5.114-10.908 11.429 0 1.411.237 2.754.677 4-3.634 1.857-6.134 5.765-6.134 10.285 0 4.272 2.234 7.995 5.548 9.96-.057.486-.091.972-.091 1.469 0 6.314 4.879 11.429 10.908 11.429 1.342 0 2.629-.246 3.813-.715 1.772 3.812 5.503 6.429 9.82 6.429 4.32 0 8.051-2.617 9.819-6.429 1.186.466 2.472.709 3.818.709 6.028 0 10.908-5.115 10.908-11.429 0-.497-.034-.983-.094-1.466 3.309-1.962 5.551-5.685 5.551-9.954z"/><path d="m115 36.428c0-4.514-2.501-8.428-6.137-10.285.44-1.243.68-2.586.68-4 0-6.315-4.886-11.423-10.908-11.423-1.343 0-2.629.24-3.818.714-1.765-3.82-5.501-6.434-9.815-6.434s-8.046 2.62-9.82 6.428c-1.186-.471-2.475-.714-3.817-.714-6.029 0-10.908 5.114-10.908 11.429 0 1.411.237 2.754.677 4-3.634 1.857-6.134 5.765-6.134 10.285 0 4.272 2.234 7.995 5.548 9.96-.057.486-.091.972-.091 1.469 0 6.314 4.879 11.429 10.908 11.429 1.342 0 2.629-.246 3.813-.715 1.772 3.812 5.503 6.429 9.82 6.429 4.32 0 8.051-2.617 9.819-6.429 1.186.466 2.472.709 3.818.709 6.028 0 10.908-5.115 10.908-11.429 0-.497-.034-.983-.094-1.466 3.309-1.962 5.551-5.685 5.551-9.954z"/></g><path d="m71 35-19.5 11.2583v-22.5166z" fill="#000"/></svg>