<svg fill="none" height="286" viewBox="0 0 236 286" width="236" xmlns="http://www.w3.org/2000/svg"><path d="m0 0h236v286h-236z" fill="#111"/><path d="m8.5 8.5h219v269h-219z" fill="#111"/><g fill="#fff"><path d="m48.1733 95v-8.12h-1.162l-.518.616c-.364.406-.714.826-1.064 1.26-.364.434-.546.672-.56.714l-2.226-2.59h-1.162v8.12h1.428v-5.796l1.484 1.708h.868l1.484-1.708v5.796zm7.4998 0v-1.302h-3.864v-2.086h2.996v-1.33h-2.996v-2.1h3.864v-1.302h-5.264v8.12zm8.4018-1.89v-4.34c0-.532-.196-.98-.56-1.344-.378-.364-.854-.546-1.428-.546h-4.172v8.12h4.172c.574 0 1.05-.168 1.428-.532.364-.364.56-.812.56-1.358zm-1.428.07c0 .14-.056.266-.154.364-.098.112-.21.154-.336.154h-2.842v-5.516h2.842c.126 0 .238.056.336.154.098.112.154.224.154.364zm9.8226-3.122c0-.308-.042-.56-.112-.756-.084-.196-.224-.392-.42-.588l-1.932-1.834h-1.232l-1.932 1.834c-.21.196-.35.392-.42.588-.084.196-.112.448-.112.756v4.942h1.414v-2.562h3.332v2.562h1.414zm-1.414 1.148h-3.332v-1.078c0-.224.056-.406.182-.532l1.47-1.484 1.498 1.484c.112.126.182.308.182.532zm8.7445 3.794v-1.302h-3.64v-6.818h-1.456v8.12z"/><path d="m151.112 93.138v-.91c0-.532-.196-.98-.574-1.344-.378-.35-.854-.532-1.414-.56-.14 0-.364.014-.672.028s-.546.014-.742.014-.392-.028-.616-.056-.378-.084-.49-.168-.168-.21-.168-.378v-1.064c0-.14.042-.252.14-.364.098-.098.21-.154.35-.154h2.184c.126 0 .238.056.336.154.098.112.154.224.154.364v.602h1.4v-.532c0-.532-.196-.98-.56-1.344-.378-.364-.854-.546-1.428-.546h-1.988c-.588 0-1.064.182-1.428.546-.378.364-.56.812-.56 1.344v.91c0 .546.182.994.56 1.344.364.364.84.546 1.428.56.14 0 .364 0 .658-.014h.742c.196 0 .406.014.63.042.21.028.378.098.49.182s.168.21.168.364v1.05c0 .14-.056.266-.154.364-.098.112-.21.154-.336.154h-2.352c-.14 0-.252-.042-.35-.154-.098-.098-.14-.224-.14-.364v-.588h-1.4v.518c0 .546.182.994.56 1.358.364.364.84.532 1.428.532h2.156c.574 0 1.05-.168 1.428-.532.364-.364.56-.812.56-1.358zm8.234-.028v-.574h-1.428v.63c0 .14-.056.266-.154.364-.098.112-.21.154-.336.154h-2.296c-.14 0-.252-.042-.35-.154-.098-.098-.14-.224-.14-.364v-4.438c0-.14.042-.252.14-.364.098-.098.21-.154.35-.154h2.296c.126 0 .238.056.336.154.098.112.154.224.154.364v.616h1.428v-.49c0-.546-.196-1.008-.56-1.4-.364-.378-.84-.574-1.4-.574h-2.184c-.588 0-1.064.182-1.428.546-.378.364-.56.812-.56 1.344v4.34c0 .546.182.994.56 1.358.364.364.84.532 1.428.532h2.156c.574 0 1.05-.168 1.428-.532.364-.364.56-.812.56-1.358zm8.647 0v-4.34c0-.532-.196-.98-.56-1.344-.378-.364-.854-.546-1.428-.546h-2.436c-.588 0-1.064.182-1.428.546-.378.364-.56.812-.56 1.344v4.34c0 .546.182.994.56 1.358.364.364.84.532 1.428.532h2.436c.574 0 1.05-.168 1.428-.532.364-.364.56-.812.56-1.358zm-1.4.07c0 .14-.056.266-.154.364-.098.112-.21.154-.336.154h-2.632c-.14 0-.252-.042-.35-.154-.098-.098-.14-.224-.14-.364v-4.48c0-.14.042-.252.14-.364.098-.098.21-.154.35-.154h2.632c.126 0 .238.056.336.154.098.112.154.224.154.364zm9.718 1.82v-2.898c0-.518-.182-.91-.546-1.176.364-.308.546-.742.546-1.274v-.882c0-.532-.196-.98-.56-1.344-.378-.364-.854-.546-1.428-.546h-4.088v8.12h1.386v-3.388h2.688c.224 0 .364.056.448.14.084.098.126.28.126.532v2.716zm-1.428-5.362c0 .252-.042.42-.126.504s-.266.126-.518.126h-2.618v-2.156h2.772c.112 0 .224.07.336.182.098.112.154.238.154.378zm8.929 5.362v-1.302h-3.864v-2.086h2.996v-1.33h-2.996v-2.1h3.864v-1.302h-5.264v8.12z"/><path d="m151.056 131.082v-1.008c0-.504-.182-.896-.546-1.176.364-.28.546-.7.546-1.274v-.826c0-.546-.196-1.008-.588-1.372s-.868-.546-1.428-.546h-3.92v8.12h3.92c.56 0 1.036-.182 1.428-.546s.588-.812.588-1.372zm-1.428-3.472c0 .252-.042.434-.126.518s-.252.126-.504.126h-2.492v-2.114h2.632c.112 0 .224.07.336.182.098.112.154.238.154.378zm0 3.584c0 .14-.056.28-.154.392-.112.112-.224.168-.336.168h-2.632v-2.226h2.548c.224 0 .364.056.448.14.084.098.126.28.126.532zm8.932 1.806v-1.302h-3.864v-2.086h2.996v-1.33h-2.996v-2.1h3.864v-1.302h-5.264v8.12zm8.234-1.862v-.91c0-.532-.196-.98-.574-1.344-.378-.35-.854-.532-1.414-.56-.14 0-.364.014-.672.028s-.546.014-.742.014-.392-.028-.616-.056-.378-.084-.49-.168-.168-.21-.168-.378v-1.064c0-.14.042-.252.14-.364.098-.098.21-.154.35-.154h2.184c.126 0 .238.056.336.154.098.112.154.224.154.364v.602h1.4v-.532c0-.532-.196-.98-.56-1.344-.378-.364-.854-.546-1.428-.546h-1.988c-.588 0-1.064.182-1.428.546-.378.364-.56.812-.56 1.344v.91c0 .546.182.994.56 1.344.364.364.84.546 1.428.56.14 0 .364 0 .658-.014h.742c.196 0 .406.014.63.042.21.028.378.098.49.182s.168.21.168.364v1.05c0 .14-.056.266-.154.364-.098.112-.21.154-.336.154h-2.352c-.14 0-.252-.042-.35-.154-.098-.098-.14-.224-.14-.364v-.588h-1.4v.518c0 .546.182.994.56 1.358.364.364.84.532 1.428.532h2.156c.574 0 1.05-.168 1.428-.532.364-.364.56-.812.56-1.358zm8.093-4.956v-1.302h-6.412v1.302h2.45v6.818h1.498v-6.818z"/></g><path d="m8 67h220v1h-220z" fill="#191919"/><path d="m119 68h102v.999996h-102z" fill="#191919" transform="matrix(0 1 -1 0 187 -51)"/><path d="m8 170h220v1h-220z" fill="#191919"/><path d="m77.4 41.3v-4.04h-4.42v1.86h2.38v2.26c0 .2-.08.38-.22.52-.14.16-.3.22-.48.22h-3.32c-.2 0-.36-.06-.5-.22-.14-.14-.2-.32-.2-.52v-6.42c0-.2.06-.36.2-.52.14-.14.3-.22.5-.22h3.32c.18 0 .34.08.48.22.14.16.22.32.22.52v.96h2.04v-.82c0-.76-.28-1.4-.8-1.92-.54-.52-1.22-.78-2.04-.78h-3.12c-.84 0-1.52.26-2.04.78-.54.52-.8 1.16-.8 1.92v6.2c0 .78.26 1.42.8 1.94.52.52 1.2.76 2.04.76h3.12c.82 0 1.5-.24 2.04-.76.52-.52.8-1.16.8-1.94zm11.9922-4.36c0-.44-.06-.8-.16-1.08-.12-.28-.32-.56-.6-.84l-2.76-2.62h-1.76l-2.76 2.62c-.3.28-.5.56-.6.84-.12.28-.16.64-.16 1.08v7.06h2.02v-3.66h4.76v3.66h2.02zm-2.02 1.64h-4.76v-1.54c0-.32.08-.58.26-.76l2.1-2.12 2.14 2.12c.16.18.26.44.26.76zm14.7718 5.42v-11.6h-1.66l-.7396.88c-.52.58-1.02 1.18-1.52 1.8-.52.62-.78.96-.8 1.02l-3.18-3.7h-1.66v11.6h2.04v-8.28l2.12 2.44h1.24l2.1196-2.44v8.28zm10.714 0v-1.86h-5.52v-2.98h4.28v-1.9h-4.28v-3h5.52v-1.86h-7.52v11.6zm19.355-2.7v-6.2c0-.76-.28-1.4-.8-1.92-.54-.52-1.22-.78-2.04-.78h-3.48c-.84 0-1.52.26-2.04.78-.54.52-.8 1.16-.8 1.92v6.2c0 .78.26 1.42.8 1.94.52.52 1.2.76 2.04.76h3.48c.82 0 1.5-.24 2.04-.76.52-.52.8-1.16.8-1.94zm-2 .1c0 .2-.08.38-.22.52-.14.16-.3.22-.48.22h-3.76c-.2 0-.36-.06-.5-.22-.14-.14-.2-.32-.2-.52v-6.4c0-.2.06-.36.2-.52.14-.14.3-.22.5-.22h3.76c.18 0 .34.08.48.22.14.16.22.32.22.52zm14.003-2v-7h-2.06v6.92c0 .34-.1.6-.26.76l-2.06 2.12-2.1-2.12c-.18-.16-.26-.42-.26-.76v-6.92h-2.06v7c0 .78.24 1.42.76 1.9l2.76 2.7h1.76l2.76-2.7c.5-.48.76-1.12.76-1.9zm10.849 4.6v-1.86h-5.52v-2.98h4.28v-1.9h-4.28v-3h5.52v-1.86h-7.52v11.6zm11.883 0v-4.14c0-.74-.26-1.3-.78-1.68.52-.44.78-1.06.78-1.82v-1.26c0-.76-.28-1.4-.8-1.92-.54-.52-1.22-.78-2.04-.78h-5.84v11.6h1.98v-4.84h3.84c.32 0 .52.08.64.2.12.14.18.4.18.76v3.88zm-2.04-7.66c0 .36-.06.6-.18.72s-.38.18-.74.18h-3.74v-3.08h3.96c.16 0 .32.1.48.26.14.16.22.34.22.54z" fill="#fff"/><path d="m85 131.19c0-3.762-2.0842-7.023-5.1142-8.571.3667-1.036.5667-2.155.5667-3.333 0-5.263-4.0717-9.519-9.09-9.519-1.1192 0-2.1908.2-3.1817.595-1.4708-3.184-4.5841-5.362-8.1791-5.362s-6.705 2.183-8.1834 5.357c-.9883-.393-2.0625-.595-3.1808-.595-5.0242 0-9.09 4.261-9.09 9.524 0 1.176.1975 2.295.5642 3.333-3.0284 1.548-5.1117 4.804-5.1117 8.571 0 3.56 1.8617 6.662 4.6233 8.3-.0475.405-.0758.81-.0758 1.224 0 5.262 4.0658 9.524 9.09 9.524 1.1183 0 2.1908-.205 3.1775-.596 1.4767 3.177 4.5858 5.358 8.1833 5.358 3.6 0 6.7092-2.181 8.1825-5.358.9884.389 2.06.591 3.1817.591 5.0233 0 9.09-4.262 9.09-9.524 0-.414-.0283-.819-.0783-1.222 2.7575-1.635 4.6258-4.737 4.6258-8.295z" fill="#191919"/><path d="m8.5 8.5h219v269h-219z" stroke="#191919"/></svg>