<svg fill="none" height="528" viewBox="0 0 624 528" width="624" xmlns="http://www.w3.org/2000/svg" xmlns:xlink="http://www.w3.org/1999/xlink"><clipPath id="a"><path d="m0 0h624v528h-624z"/></clipPath><clipPath id="b"><path d="m0 0h624v624h-624z"/></clipPath><clipPath id="c"><path d="m0 438h624v90h-624z"/></clipPath><g clip-path="url(#a)"><path d="m0 0h624v528h-624z" fill="#111"/><g clip-path="url(#b)" stroke="#191919"><path d="m0 528h48v48h-48z"/><path d="m624 528h48v48h-48z"/><path d="m0 480h48v48h-48z"/><path d="m624 480h48v48h-48z"/><path d="m0 432h48v48h-48z"/><path d="m624 432h48v48h-48z"/><path d="m0 384h48v48h-48z"/><path d="m624 384h48v48h-48z"/><path d="m0 336h48v48h-48z"/><path d="m624 336h48v48h-48z"/><path d="m0 288h48v48h-48z"/><path d="m624 288h48v48h-48z"/><path d="m0 240h48v48h-48z"/><path d="m624 240h48v48h-48z"/><path d="m0 192h48v48h-48z"/><path d="m624 192h48v48h-48z"/><path d="m0 144h48v48h-48z"/><path d="m624 144h48v48h-48z"/><path d="m0 96h48v48h-48z"/><path d="m624 96h48v48h-48z"/><path d="m0 48h48v48h-48z"/><path d="m624 48h48v48h-48z"/><path d="m0 0h48v48h-48z"/><path d="m624 0h48v48h-48z"/><path d="m48 528h48v48h-48z"/><path d="m48 480h48v48h-48z"/><path d="m48 432h48v48h-48z"/><path d="m48 384h48v48h-48z"/><path d="m48 336h48v48h-48z"/><path d="m48 288h48v48h-48z"/><path d="m48 240h48v48h-48z"/><path d="m48 192h48v48h-48z"/><path d="m48 144h48v48h-48z"/><path d="m48 96h48v48h-48z"/><path d="m48 48h48v48h-48z"/><path d="m48 0h48v48h-48z"/><path d="m96 528h48v48h-48z"/><path d="m96 480h48v48h-48z"/><path d="m96 432h48v48h-48z"/><path d="m96 384h48v48h-48z"/><path d="m96 336h48v48h-48z"/><path d="m96 288h48v48h-48z"/><path d="m96 240h48v48h-48z"/><path d="m96 192h48v48h-48z"/><path d="m96 144h48v48h-48z"/><path d="m96 96h48v48h-48z"/><path d="m96 48h48v48h-48z"/><path d="m96 0h48v48h-48z"/><path d="m144 528h48v48h-48z"/><path d="m144 480h48v48h-48z"/><path d="m144 432h48v48h-48z"/><path d="m144 384h48v48h-48z"/><path d="m144 336h48v48h-48z"/><path d="m144 288h48v48h-48z"/><path d="m144 240h48v48h-48z"/><path d="m144 192h48v48h-48z"/><path d="m144 144h48v48h-48z"/><path d="m144 96h48v48h-48z"/><path d="m144 48h48v48h-48z"/><path d="m144 0h48v48h-48z"/><path d="m192 528h48v48h-48z"/><path d="m192 480h48v48h-48z"/><path d="m192 432h48v48h-48z"/><path d="m192 384h48v48h-48z"/><path d="m192 336h48v48h-48z"/><path d="m192 288h48v48h-48z"/><path d="m192 240h48v48h-48z"/><path d="m192 192h48v48h-48z"/><path d="m192 144h48v48h-48z"/><path d="m192 96h48v48h-48z"/><path d="m192 48h48v48h-48z"/><path d="m192 0h48v48h-48z"/><path d="m240 528h48v48h-48z"/><path d="m240 480h48v48h-48z"/><path d="m240 432h48v48h-48z"/><path d="m240 384h48v48h-48z"/><path d="m240 336h48v48h-48z"/><path d="m240 288h48v48h-48z"/><path d="m240 240h48v48h-48z"/><path d="m240 192h48v48h-48z"/><path d="m240 144h48v48h-48z"/><path d="m240 96h48v48h-48z"/><path d="m240 48h48v48h-48z"/><path d="m240 0h48v48h-48z"/><path d="m288 528h48v48h-48z"/><path d="m288 480h48v48h-48z"/><path d="m288 432h48v48h-48z"/><path d="m288 384h48v48h-48z"/><path d="m288 336h48v48h-48z"/><path d="m288 288h48v48h-48z"/><path d="m288 240h48v48h-48z"/><path d="m288 192h48v48h-48z"/><path d="m288 144h48v48h-48z"/><path d="m288 96h48v48h-48z"/><path d="m288 48h48v48h-48z"/><path d="m288 0h48v48h-48z"/><path d="m336 528h48v48h-48z"/><path d="m336 480h48v48h-48z"/><path d="m336 432h48v48h-48z"/><path d="m336 384h48v48h-48z"/><path d="m336 336h48v48h-48z"/><path d="m336 288h48v48h-48z"/><path d="m336 240h48v48h-48z"/><path d="m336 192h48v48h-48z"/><path d="m336 144h48v48h-48z"/><path d="m336 96h48v48h-48z"/><path d="m336 48h48v48h-48z"/><path d="m336 0h48v48h-48z"/><path d="m384 528h48v48h-48z"/><path d="m384 480h48v48h-48z"/><path d="m384 432h48v48h-48z"/><path d="m384 384h48v48h-48z"/><path d="m384 336h48v48h-48z"/><path d="m384 288h48v48h-48z"/><path d="m384 240h48v48h-48z"/><path d="m384 192h48v48h-48z"/><path d="m384 144h48v48h-48z"/><path d="m384 96h48v48h-48z"/><path d="m384 48h48v48h-48z"/><path d="m384 0h48v48h-48z"/><path d="m432 528h48v48h-48z"/><path d="m432 480h48v48h-48z"/><path d="m432 432h48v48h-48z"/><path d="m432 384h48v48h-48z"/><path d="m432 336h48v48h-48z"/><path d="m432 288h48v48h-48z"/><path d="m432 240h48v48h-48z"/><path d="m432 192h48v48h-48z"/><path d="m432 144h48v48h-48z"/><path d="m432 96h48v48h-48z"/><path d="m432 48h48v48h-48z"/><path d="m432 0h48v48h-48z"/><path d="m480 528h48v48h-48z"/><path d="m480 480h48v48h-48z"/><path d="m480 432h48v48h-48z"/><path d="m480 384h48v48h-48z"/><path d="m480 336h48v48h-48z"/><path d="m480 288h48v48h-48z"/><path d="m480 240h48v48h-48z"/><path d="m480 192h48v48h-48z"/><path d="m480 144h48v48h-48z"/><path d="m480 96h48v48h-48z"/><path d="m480 48h48v48h-48z"/><path d="m480 0h48v48h-48z"/><path d="m528 528h48v48h-48z"/><path d="m528 480h48v48h-48z"/><path d="m528 432h48v48h-48z"/><path d="m528 384h48v48h-48z"/><path d="m528 336h48v48h-48z"/><path d="m528 288h48v48h-48z"/><path d="m528 240h48v48h-48z"/><path d="m528 192h48v48h-48z"/><path d="m528 144h48v48h-48z"/><path d="m528 96h48v48h-48z"/><path d="m528 48h48v48h-48z"/><path d="m528 0h48v48h-48z"/><path d="m576 528h48v48h-48z"/><path d="m576 480h48v48h-48z"/><path d="m576 432h48v48h-48z"/><path d="m576 384h48v48h-48z"/><path d="m576 336h48v48h-48z"/><path d="m576 288h48v48h-48z"/><path d="m576 240h48v48h-48z"/><path d="m576 192h48v48h-48z"/><path d="m576 144h48v48h-48z"/><path d="m576 96h48v48h-48z"/><path d="m576 48h48v48h-48z"/><path d="m576 0h48v48h-48z"/></g><path d="m0 0h624v96h-624z" fill="#0b0b0b"/><g opacity=".3"><g clip-path="url(#c)" stroke-width="2"><path d="m0 472.25 43.6266-10.75 42.6984 16.25 23.67 25.25 35.969-13.5 25.294-28 35.968-23.5 42.003 11.75 48.732 11.75 16.011 28 32.72 13.5 85.629 10 58.943-29.75 43.626-33.5 32.024-11.75 14.156 34.25h42.93" stroke="#734847"/><path d="m0 474.29 39.9911-7.31 39.1402 11.05 21.6977 17.17 32.971-9.18 23.186-19.04 32.972-15.98 38.502 7.99 44.671 7.99 14.677 19.04 29.993 9.18 78.494 6.8 54.03-20.23 39.991-22.78 29.355-7.99 12.976 23.29 34.353 7.48 35.5-14.79 19.5 7.31" stroke="#2f4735"/></g><g stroke="#191919"><path d="m0 503h12v25h-12z" fill="#afedc2"/><path d="m12 512h12v16h-12z" fill="#f19796"/><path d="m24 522h12v6h-12z" fill="#f19796"/><path d="m36 468h12v60h-12z" fill="#afedc2"/><path d="m48 432h12v96h-12z" fill="#afedc2"/><path d="m60 452h12v76h-12z" fill="#f19796"/><path d="m72 480h12v48h-12z" fill="#f19796"/><path d="m84 503h12v25h-12z" fill="#f19796"/><path d="m96 494h12v34h-12z" fill="#afedc2"/><path d="m108 480h12v48h-12z" fill="#afedc2"/><path d="m120 464h12v64h-12z" fill="#afedc2"/><path d="m132 512h12v16h-12z" fill="#f19796"/><path d="m144 503h12v25h-12z" fill="#afedc2"/><path d="m156 513h12v15h-12z" fill="#afedc2"/><path d="m168 518h12v10h-12z" fill="#f19796"/><path d="m180 499h12v29h-12z" fill="#afedc2"/><path d="m192 489h12v39h-12z" fill="#afedc2"/><path d="m204 470h12v58h-12z" fill="#afedc2"/><path d="m216 482h12v46h-12z" fill="#f19796"/><path d="m228 493h12v35h-12z" fill="#f19796"/><path d="m240 513h12v15h-12z" fill="#f19796"/><path d="m252 507h12v21h-12z" fill="#afedc2"/><path d="m264 499h12v29h-12z" fill="#afedc2"/><path d="m276 489h12v39h-12z" fill="#afedc2"/><path d="m288 518h12v10h-12z" fill="#f19796"/><path d="m300 513h12v15h-12z" fill="#afedc2"/><path d="m312 503h12v25h-12z" fill="#afedc2"/><path d="m324 512h12v16h-12z" fill="#f19796"/><path d="m336 518h12v10h-12z" fill="#afedc2"/><path d="m348 522h12v6h-12z" fill="#f19796"/><path d="m360 493h12v35h-12z" fill="#f19796"/><path d="m372 482h12v46h-12z" fill="#afedc2"/><path d="m384 494h12v34h-12z" fill="#afedc2"/><path d="m396 503h12v25h-12z" fill="#f19796"/><path d="m408 513h12v15h-12z" fill="#f19796"/><path d="m420 480h12v48h-12z" fill="#afedc2"/><path d="m432 464h12v64h-12z" fill="#afedc2"/><path d="m444 489h12v39h-12z" fill="#f19796"/><path d="m456 503h12v25h-12z" fill="#f19796"/><path d="m468 509h12v19h-12z" fill="#afedc2"/><path d="m480 513h12v15h-12z" fill="#f19796"/><path d="m492 518h12v10h-12z" fill="#afedc2"/><path d="m504 513h12v15h-12z" fill="#afedc2"/><path d="m516 503h12v25h-12z" fill="#f19796"/><path d="m528 468h12v60h-12z" fill="#afedc2"/><path d="m540 482h12v46h-12z" fill="#f19796"/><path d="m552 513h12v15h-12z" fill="#f19796"/><path d="m564 507h12v21h-12z" fill="#afedc2"/><path d="m576 499h12v29h-12z" fill="#afedc2"/><path d="m588 489h12v39h-12z" fill="#afedc2"/><path d="m600 518h12v10h-12z" fill="#f19796"/><path d="m612 503h12v25h-12z" fill="#afedc2"/><path d="m624 512h12v16h-12z" fill="#f19796"/></g></g></g></svg>