<svg fill="none" height="48" viewBox="0 0 48 48" width="48" xmlns="http://www.w3.org/2000/svg"><path d="m48 25.1424c0-3.6112-2.0008-6.7424-4.9096-8.228.352-.9944.544-2.0688.544-3.2 0-5.052-3.9088-9.1384-8.7264-9.1384-1.0744 0-2.1032.192-3.0544.5712-1.412-3.056-4.4008-5.1472-7.852-5.1472s-6.4368 2.096-7.856 5.1424c-.9488-.3768-1.98-.5712-3.0536-.5712-4.8232 0-8.7264 4.0912-8.7264 9.1432 0 1.1288.1896 2.2032.5416 3.2-2.9072 1.4856-4.9072 4.612-4.9072 8.228 0 3.4176 1.7872 6.396 4.4384 7.968-.0456.3888-.0728.7776-.0728 1.1752 0 5.0512 3.9032 9.1432 8.7264 9.1432 1.0736 0 2.1032-.1968 3.0504-.572 1.4176 3.0496 4.4024 5.1432 7.856 5.1432 3.456 0 6.4408-2.0936 7.8552-5.1432.9488.3728 1.9776.5672 3.0544.5672 4.8224 0 8.7264-4.092 8.7264-9.1432 0-.3976-.0272-.7864-.0752-1.1728 2.6472-1.5696 4.4408-4.548 4.4408-7.9632z" fill="#fff"/><path d="m13 27.5v-7.5h4l7-6v19.5l-7-6z" fill="#000"/><path d="m31.2455 15c2.501 2.3693 4.061 5.722 4.061 9.439 0 3.4627-1.3538 6.6092-3.561 8.939m-2.6223-16.2557c1.9586 1.8256 3.1833 4.4281 3.1833 7.3167 0 2.6342-1.0185 5.0306-2.6833 6.8167m-2.6232-12.0102c1.4165 1.281 2.3065 3.1333 2.3065 5.1935 0 1.8058-.6837 3.4519-1.8065 4.6935" stroke="#000" stroke-linecap="round" stroke-linejoin="round"/></svg>