<svg fill="none" height="20" viewBox="0 0 23 20" width="23" xmlns="http://www.w3.org/2000/svg"><g fill="#fff"><path d="m0 13.5v-7.5h4l7-6v19.5l-7-6z"/><path clip-rule="evenodd" d="m17.8826.656132c.1899-.200468.5063-.209024.7068-.019111 2.5965 2.459809 4.2171 5.942049 4.2171 9.801979 0 3.5956-1.4063 6.8639-3.698 9.2829-.1899.2005-.5064.209-.7068.0191-.2005-.1899-.2091-.5064-.0191-.7068 2.1227-2.2407 3.4239-5.2655 3.4239-8.5952 0-3.5741-1.4994-6.7972-3.9048-9.07602-.2005-.18991-.2091-.506379-.0191-.706848zm-2.1251 2.125288c.1882-.202.5046-.21312.7066-.02484 2.0558 1.91613 3.3424 4.64941 3.3424 7.68242 0 2.7657-1.0699 5.2826-2.8175 7.1576-.1883.202-.5047.2131-.7067.0248-.202-.1882-.2131-.5046-.0248-.7066 1.5819-1.6972 2.549-3.973 2.549-6.4758 0-2.74419-1.1629-5.216-3.0242-6.95091-.202-.18828-.2131-.50466-.0248-.70667zm-2.1284 2.12876c.1853-.20482.5014-.22071.7063-.03549 1.5169 1.37173 2.4711 3.35693 2.4711 5.56431 0 1.9345-.733 3.6989-1.9356 5.0288-.1853.2049-.5014.2207-.7063.0355-.2048-.1852-.2207-.5014-.0355-.7062 1.0429-1.1532 1.6774-2.681 1.6774-4.3581 0-1.91301-.8257-3.63246-2.1419-4.8226-.2048-.18522-.2207-.5014-.0355-.70622z" fill-rule="evenodd"/></g></svg>