<svg fill="none" height="286" viewBox="0 0 236 286" width="236" xmlns="http://www.w3.org/2000/svg"><path d="m0 0h236v286h-236z" fill="#111"/><path d="m8.5 8.5h219v269h-219z" fill="#111"/><path d="m8 67h220v1h-220z" fill="#191919"/><path d="m75.4 41.3v-4.04h-4.42v1.86h2.38v2.26c0 .2-.08.38-.22.52-.14.16-.3.22-.48.22h-3.32c-.2 0-.36-.06-.5-.22-.14-.14-.2-.32-.2-.52v-6.42c0-.2.06-.36.2-.52.14-.14.3-.22.5-.22h3.32c.18 0 .34.08.48.22.14.16.22.32.22.52v.96h2.04v-.82c0-.76-.28-1.4-.8-1.92-.54-.52-1.22-.78-2.04-.78h-3.12c-.84 0-1.52.26-2.04.78-.54.52-.8 1.16-.8 1.92v6.2c0 .78.26 1.42.8 1.94.52.52 1.2.76 2.04.76h3.12c.82 0 1.5-.24 2.04-.76.52-.52.8-1.16.8-1.94zm10.7122 2.7v-1.86h-5.52v-2.98h4.28v-1.9h-4.28v-3h5.52v-1.86h-7.52v11.6zm11.7626-9.74v-1.86h-9.16v1.86h3.5v9.74h2.14v-9.74zm18.2642 9.74v-4.14c0-.74-.26-1.3-.78-1.68.52-.44.78-1.06.78-1.82v-1.26c0-.76-.28-1.4-.8-1.92-.54-.52-1.22-.78-2.04-.78h-5.84v11.6h1.98v-4.84h3.84c.32 0 .52.08.64.2.12.14.18.4.18.76v3.88zm-2.04-7.66c0 .36-.06.6-.18.72s-.38.18-.74.18h-3.74v-3.08h3.96c.16 0 .32.1.48.26.14.16.22.34.22.54zm12.755 7.66v-1.86h-5.52v-2.98h4.28v-1.9h-4.28v-3h5.52v-1.86h-7.52v11.6zm12.003-7.06c0-.44-.06-.8-.16-1.08-.12-.28-.32-.56-.6-.84l-2.76-2.62h-1.76l-2.76 2.62c-.3.28-.5.56-.6.84-.12.28-.16.64-.16 1.08v7.06h2.02v-3.66h4.76v3.66h2.02zm-2.02 1.64h-4.76v-1.54c0-.32.08-.58.26-.76l2.1-2.12 2.14 2.12c.16.18.26.44.26.76zm14.012 2.72v-6.2c0-.76-.28-1.4-.8-1.92-.54-.52-1.22-.78-2.04-.78h-5.96v11.6h5.96c.82 0 1.5-.24 2.04-.76.52-.52.8-1.16.8-1.94zm-2.04.1c0 .2-.08.38-.22.52-.14.16-.3.22-.48.22h-4.06v-7.88h4.06c.18 0 .34.08.48.22.14.16.22.32.22.52zm13.912-5.9v-3.1h-2.02v3.02c0 .24-.02.38-.04.44-.04.08-.1.16-.22.28l-2.08 2.1-2.06-2.1c-.12-.12-.2-.2-.22-.28-.04-.06-.04-.2-.04-.44v-3.02h-2v3.1c0 .42.04.76.16 1.04.1.28.3.54.6.82l2.56 2.54v4.1h2.04v-4.1l2.56-2.54c.28-.28.48-.54.6-.82.1-.28.16-.62.16-1.04zm6.015-3.1h-2.72v3.02l.38 5.38h1.96l.38-5.38zm-.2 11.6v-2.24h-2.36v2.24z" fill="#fff"/><path d="m64 223h110v14h-110z" fill="#fff"/><path d="m92.2768 232.138v-.91c0-.532-.196-.98-.574-1.344-.378-.35-.854-.532-1.414-.56-.14 0-.364.014-.672.028s-.546.014-.742.014-.392-.028-.616-.056-.378-.084-.49-.168-.168-.21-.168-.378v-1.064c0-.14.042-.252.14-.364.098-.098.21-.154.35-.154h2.184c.126 0 .238.056.336.154.098.112.154.224.154.364v.602h1.4v-.532c0-.532-.196-.98-.56-1.344-.378-.364-.854-.546-1.428-.546h-1.988c-.588 0-1.064.182-1.428.546-.378.364-.56.812-.56 1.344v.91c0 .546.182.994.56 1.344.364.364.84.546 1.428.56.14 0 .364 0 .658-.014h.742c.196 0 .406.014.63.042.21.028.378.098.49.182s.168.21.168.364v1.05c0 .14-.056.266-.154.364-.098.112-.21.154-.336.154h-2.352c-.14 0-.252-.042-.35-.154-.098-.098-.14-.224-.14-.364v-.588h-1.4v.518c0 .546.182.994.56 1.358.364.364.84.532 1.428.532h2.156c.574 0 1.05-.168 1.428-.532.364-.364.56-.812.56-1.358zm7.4498-3.43v-.938c0-.532-.196-.98-.56-1.344-.378-.364-.854-.546-1.428-.546h-3.92v8.12h1.4v-3.388h2.52c.56 0 1.036-.168 1.414-.532s.574-.812.574-1.372zm-1.4.098c0 .14-.056.252-.154.35-.098.112-.21.154-.336.154h-2.618v-2.156h2.618c.126 0 .238.056.336.154.098.112.154.224.154.364zm9.1034.252c0-.308-.042-.56-.112-.756-.084-.196-.224-.392-.42-.588l-1.932-1.834h-1.232l-1.932 1.834c-.21.196-.35.392-.42.588-.084.196-.112.448-.112.756v4.942h1.414v-2.562h3.332v2.562h1.414zm-1.414 1.148h-3.332v-1.078c0-.224.056-.406.182-.532l1.47-1.484 1.498 1.484c.112.126.182.308.182.532zm9.221 1.904v-.574h-1.428v.63c0 .14-.056.266-.154.364-.098.112-.21.154-.336.154h-2.296c-.14 0-.252-.042-.35-.154-.098-.098-.14-.224-.14-.364v-4.438c0-.14.042-.252.14-.364.098-.098.21-.154.35-.154h2.296c.126 0 .238.056.336.154.098.112.154.224.154.364v.616h1.428v-.49c0-.546-.196-1.008-.56-1.4-.364-.378-.84-.574-1.4-.574h-2.184c-.588 0-1.064.182-1.428.546-.378.364-.56.812-.56 1.344v4.34c0 .546.182.994.56 1.358.364.364.84.532 1.428.532h2.156c.574 0 1.05-.168 1.428-.532.364-.364.56-.812.56-1.358zm6.939 1.89v-1.302h-3.864v-2.086h2.996v-1.33h-2.996v-2.1h3.864v-1.302h-5.264v8.12zm11.952-1.918v-1.008c0-.504-.182-.896-.546-1.176.364-.28.546-.7.546-1.274v-.826c0-.546-.196-1.008-.588-1.372s-.868-.546-1.428-.546h-3.92v8.12h3.92c.56 0 1.036-.182 1.428-.546s.588-.812.588-1.372zm-1.428-3.472c0 .252-.042.434-.126.518s-.252.126-.504.126h-2.492v-2.114h2.632c.112 0 .224.07.336.182.098.112.154.238.154.378zm0 3.584c0 .14-.056.28-.154.392-.112.112-.224.168-.336.168h-2.632v-2.226h2.548c.224 0 .364.056.448.14.084.098.126.28.126.532zm9.268-3.136c0-.308-.042-.56-.112-.756-.084-.196-.224-.392-.42-.588l-1.932-1.834h-1.232l-1.932 1.834c-.21.196-.35.392-.42.588-.084.196-.112.448-.112.756v4.942h1.414v-2.562h3.332v2.562h1.414zm-1.414 1.148h-3.332v-1.078c0-.224.056-.406.182-.532l1.47-1.484 1.498 1.484c.112.126.182.308.182.532zm9.165 3.794v-2.898c0-.518-.182-.91-.546-1.176.364-.308.546-.742.546-1.274v-.882c0-.532-.196-.98-.56-1.344-.378-.364-.854-.546-1.428-.546h-4.088v8.12h1.386v-3.388h2.688c.224 0 .364.056.448.14.084.098.126.28.126.532v2.716zm-1.428-5.362c0 .252-.042.42-.126.504s-.266.126-.518.126h-2.618v-2.156h2.772c.112 0 .224.07.336.182.098.112.154.238.154.378z" fill="#000"/><g fill="#fff"><path d="m83.4979 213.245v-4.03c0-.494-.182-.91-.52-1.248-.351-.338-.793-.507-1.326-.507h-2.262c-.546 0-.988.169-1.326.507-.351.338-.52.754-.52 1.248v4.03c0 .507.169.923.52 1.261.338.338.78.494 1.326.494h2.262c.533 0 .975-.156 1.326-.494.338-.338.52-.754.52-1.261zm-1.3.065c0 .13-.052.247-.143.338-.091.104-.195.143-.312.143h-2.444c-.13 0-.234-.039-.325-.143-.091-.091-.13-.208-.13-.338v-4.16c0-.13.039-.234.13-.338.091-.091.195-.143.325-.143h2.444c.117 0 .221.052.312.143.091.104.143.208.143.338zm9.0241 1.69v-2.691c0-.481-.169-.845-.507-1.092.338-.286.507-.689.507-1.183v-.819c0-.494-.182-.91-.52-1.248-.351-.338-.793-.507-1.326-.507h-3.796v7.54h1.287v-3.146h2.496c.208 0 .338.052.416.13.078.091.117.26.117.494v2.522zm-1.326-4.979c0 .234-.039.39-.117.468s-.247.117-.481.117h-2.431v-2.002h2.574c.104 0 .208.065.312.169.091.104.143.221.143.351zm13.434.065v-.871c0-.494-.182-.91-.52-1.248-.351-.338-.793-.507-1.326-.507h-3.6403v7.54h1.3v-3.146h2.3403c.52 0 .962-.156 1.313-.494s.533-.754.533-1.274zm-1.3.091c0 .13-.052.234-.143.325-.091.104-.195.143-.312.143h-2.4313v-2.002h2.4313c.117 0 .221.052.312.143.091.104.143.208.143.338zm8.895 4.823v-2.691c0-.481-.169-.845-.507-1.092.338-.286.507-.689.507-1.183v-.819c0-.494-.182-.91-.52-1.248-.351-.338-.793-.507-1.326-.507h-3.796v7.54h1.287v-3.146h2.496c.208 0 .338.052.416.13.078.091.117.26.117.494v2.522zm-1.326-4.979c0 .234-.039.39-.117.468s-.247.117-.481.117h-2.431v-2.002h2.574c.104 0 .208.065.312.169.091.104.143.221.143.351zm8.291 4.979v-1.209h-3.588v-1.937h2.782v-1.235h-2.782v-1.95h3.588v-1.209h-4.888v7.54zm7.646-1.729v-.845c0-.494-.182-.91-.533-1.248-.351-.325-.793-.494-1.313-.52-.13 0-.338.013-.624.026s-.507.013-.689.013-.364-.026-.572-.052-.351-.078-.455-.156-.156-.195-.156-.351v-.988c0-.13.039-.234.13-.338.091-.091.195-.143.325-.143h2.028c.117 0 .221.052.312.143.091.104.143.208.143.338v.559h1.3v-.494c0-.494-.182-.91-.52-1.248-.351-.338-.793-.507-1.326-.507h-1.846c-.546 0-.988.169-1.326.507-.351.338-.52.754-.52 1.248v.845c0 .507.169.923.52 1.248.338.338.78.507 1.326.52.13 0 .338 0 .611-.013h.689c.182 0 .377.013.585.039.195.026.351.091.455.169s.156.195.156.338v.975c0 .13-.052.247-.143.338-.091.104-.195.143-.312.143h-2.184c-.13 0-.234-.039-.325-.143-.091-.091-.13-.208-.13-.338v-.546h-1.3v.481c0 .507.169.923.52 1.261.338.338.78.494 1.326.494h2.002c.533 0 .975-.156 1.326-.494.338-.338.52-.754.52-1.261zm7.515 0v-.845c0-.494-.182-.91-.533-1.248-.351-.325-.793-.494-1.313-.52-.13 0-.338.013-.624.026s-.507.013-.689.013-.364-.026-.572-.052-.351-.078-.455-.156-.156-.195-.156-.351v-.988c0-.13.039-.234.13-.338.091-.091.195-.143.325-.143h2.028c.117 0 .221.052.312.143.091.104.143.208.143.338v.559h1.3v-.494c0-.494-.182-.91-.52-1.248-.351-.338-.793-.507-1.326-.507h-1.846c-.546 0-.988.169-1.326.507-.351.338-.52.754-.52 1.248v.845c0 .507.169.923.52 1.248.338.338.78.507 1.326.52.13 0 .338 0 .611-.013h.689c.182 0 .377.013.585.039.195.026.351.091.455.169s.156.195.156.338v.975c0 .13-.052.247-.143.338-.091.104-.195.143-.312.143h-2.184c-.13 0-.234-.039-.325-.143-.091-.091-.13-.208-.13-.338v-.546h-1.3v.481c0 .507.169.923.52 1.261.338.338.78.494 1.326.494h2.002c.533 0 .975-.156 1.326-.494.338-.338.52-.754.52-1.261zm12.061-4.602v-1.209h-5.954v1.209h2.275v6.331h1.391v-6.331zm7.379 6.331v-7.54h-1.326v3.133h-3.042v-3.133h-1.326v7.54h1.326v-3.159h3.042v3.159zm6.963 0v-1.209h-3.588v-1.937h2.782v-1.235h-2.782v-1.95h3.588v-1.209h-4.888v7.54z"/><path d="m169.059 132.669v-1.209h-5.954v1.209h2.275v6.331h1.391v-6.331zm7.012 1.742c0-.286-.039-.52-.104-.702-.078-.182-.208-.364-.39-.546l-1.794-1.703h-1.144l-1.794 1.703c-.195.182-.325.364-.39.546-.078.182-.104.416-.104.702v4.589h1.313v-2.379h3.094v2.379h1.313zm-1.313 1.066h-3.094v-1.001c0-.208.052-.377.169-.494l1.365-1.378 1.391 1.378c.104.117.169.286.169.494zm8.873-1.391v-.871c0-.494-.182-.91-.52-1.248-.351-.338-.793-.507-1.326-.507h-3.64v7.54h1.3v-3.146h2.34c.52 0 .962-.156 1.313-.494s.533-.754.533-1.274zm-1.3.091c0 .13-.052.234-.143.325-.091.104-.195.143-.312.143h-2.431v-2.002h2.431c.117 0 .221.052.312.143.091.104.143.208.143.338z"/><path d="m169.402 98.2334c0-.6812.552-1.2334 1.233-1.2334.682 0 1.234.5522 1.234 1.2334v9.0446c0 .227.184.411.411.411s.411-.184.411-.411v-3.812c0-.681.552-1.233 1.234-1.233.681 0 1.233.552 1.233 1.233v3.775c0 .248.201.448.448.448.248 0 .449-.2.449-.448v-2.729c0-.681.552-1.233 1.233-1.233s1.234.552 1.234 1.233v2.766c0 .227.184.411.411.411s.411-.184.411-.411v-1.869c0-.681.552-1.233 1.233-1.233.682 0 1.234.552 1.234 1.233v7.662h-.004c.002.075.004.149.004.225 0 3.426-2.845 6.204-6.354 6.204-1.121 0-2.175-.284-3.089-.781-.029-.013-.058-.026-.088-.041-.822-.411-1.668-1.152-2.27-1.761-.08-.059-.154-.128-.22-.208l-.161-.194c-.104-.115-.193-.218-.264-.304l.007-.006-5.088-6.142c-.435-.524-.362-1.302.163-1.736.524-.435 1.302-.362 1.736.163l2.376 2.867c.154.186.424.227.627.095.135-.088.216-.238.216-.399z"/></g><path d="m79 119.571c0-1.805-1.0004-3.371-2.4548-4.114.176-.497.272-1.034.272-1.6 0-2.526-1.9544-4.569-4.3632-4.569-.5372 0-1.0516.096-1.5272.286-.706-1.528-2.2004-2.574-3.926-2.574s-3.2184 1.048-3.928 2.571c-.4744-.188-.99-.285-1.5268-.285-2.4116 0-4.3632 2.045-4.3632 4.571 0 .565.0948 1.102.2708 1.6-1.4536.743-2.4536 2.306-2.4536 4.114 0 1.709.8936 3.198 2.2192 3.984-.0228.195-.0364.389-.0364.588 0 2.525 1.9516 4.571 4.3632 4.571.5368 0 1.0516-.098 1.5252-.286.7088 1.525 2.2012 2.572 3.928 2.572 1.728 0 3.2204-1.047 3.9276-2.572.4744.187.9888.284 1.5272.284 2.4112 0 4.3632-2.046 4.3632-4.572 0-.198-.0136-.393-.0376-.586 1.3236-.785 2.2204-2.274 2.2204-3.982z" fill="#f2b341"/><path d="m71.2375 115.534-4.9528 7.428c-.1656.248-.4368.382-.7144.382-.1632 0-.3292-.046-.4756-.144l-.1312-.107-2.76-2.76c-.3348-.335-.3348-.878 0-1.212.3348-.333.8776-.336 1.2116 0l2.0228 2.02 4.3712-6.56c.2628-.395.7952-.499 1.188-.237.3956.263.5032.796.2404 1.189z" fill="#000"/><path d="m50.1643 113.103 5.1072.312c1.8533.114 3.5431 1.099 4.5546 2.656l.0669.103c.9742 1.5 1.1759 3.374.543 5.047-.9995 2.641-3.8057 4.13-6.5533 3.475l-.0709-.017-.1158.487.1158-.487c-.4251-.101-.8372-.251-1.2281-.446l-3.3096-1.655c-1.7354-.868-2.8883-2.582-3.0372-4.517l-.0691-.899c-.0938-1.219.4085-2.408 1.3478-3.191.7399-.616 1.6874-.927 2.6487-.868z" fill="#eaeaea" stroke="#000"/><path d="m119 68h102v.999996h-102z" fill="#191919" transform="matrix(0 1 -1 0 187 -51)"/><path d="m8 170h220v1h-220z" fill="#191919"/><path d="m8.5 8.5h219v269h-219z" stroke="#191919"/></svg>